HIERARCHY
ROOT root
{
	OFFSET 0.000000 0.000000 0.000000
	CHANNELS 6 Xposition Yposition Zposition Zrotation Yrotation Xrotation
	JOINT lhip
	{
		OFFSET 0.058581 -0.082280 -0.017664
		CHANNELS 3 Zrotation Yrotation Xrotation
		JOINT lknee
		{
			OFFSET 0.043451 -0.386469 0.008037
			CHANNELS 3 Zrotation Yrotation Xrotation
			JOINT lankle
			{
				OFFSET -0.014790 -0.426874 -0.037428
				CHANNELS 3 Zrotation Yrotation Xrotation
				JOINT ltoe
				{
					OFFSET 0.041054 -0.060286 0.122042
					CHANNELS 3 Zrotation Yrotation Xrotation
					End Site
					{
						OFFSET 0.000000 0.000000 0.000000
					}
				}
			}
		}
	}
	JOINT rhip
	{
		OFFSET -0.060310 -0.090513 -0.013543
		CHANNELS 3 Zrotation Yrotation Xrotation
		JOINT rknee
		{
			OFFSET -0.043257 -0.383688 -0.004843
			CHANNELS 3 Zrotation Yrotation Xrotation
			JOINT rankle
			{
				OFFSET 0.019056 -0.420046 -0.034562
				CHANNELS 3 Zrotation Yrotation Xrotation
				JOINT rtoe
				{
					OFFSET -0.034840 -0.062106 0.130323
					CHANNELS 3 Zrotation Yrotation Xrotation
					End Site
					{
						OFFSET 0.000000 0.000000 0.000000
					}
				}
			}
		}
	}
	JOINT lowerback
	{
		OFFSET 0.004439 0.124404 -0.038385
		CHANNELS 3 Zrotation Yrotation Xrotation
		JOINT upperback
		{
			OFFSET 0.004488 0.137956 0.026820
			CHANNELS 3 Zrotation Yrotation Xrotation
			JOINT chest
			{
				OFFSET -0.002265 0.056032 0.002855
				CHANNELS 3 Zrotation Yrotation Xrotation
				JOINT lowerneck
				{
					OFFSET -0.013390 0.211636 -0.033468
					CHANNELS 3 Zrotation Yrotation Xrotation
					JOINT upperneck
					{
						OFFSET 0.010113 0.088937 0.050410
						CHANNELS 3 Zrotation Yrotation Xrotation
						End Site
						{
							OFFSET 0.000000 0.000000 0.000000
						}
					}
				}
				JOINT lclavicle
				{
					OFFSET 0.071702 0.114000 -0.018898
					CHANNELS 3 Zrotation Yrotation Xrotation
					JOINT lshoulder
					{
						OFFSET 0.122921 0.045205 -0.019046
						CHANNELS 3 Zrotation Yrotation Xrotation
						JOINT lelbow
						{
							OFFSET 0.255332 -0.015649 -0.022946
							CHANNELS 3 Zrotation Yrotation Xrotation
							JOINT lwrist
							{
								OFFSET 0.265709 0.012698 -0.007375
								CHANNELS 3 Zrotation Yrotation Xrotation
								End Site
								{
									OFFSET 0.000000 0.000000 0.000000
								}
							}
						}
					}
				}
				JOINT rclavicle
				{
					OFFSET -0.082954 0.112472 -0.023707
					CHANNELS 3 Zrotation Yrotation Xrotation
					JOINT rshoulder
					{
						OFFSET -0.113228 0.046853 -0.008472
						CHANNELS 3 Zrotation Yrotation Xrotation
						JOINT relbow
						{
							OFFSET -0.260127 -0.014369 -0.031269
							CHANNELS 3 Zrotation Yrotation Xrotation
							JOINT rwrist
							{
								OFFSET -0.269108 0.006794 -0.006027
								CHANNELS 3 Zrotation Yrotation Xrotation
								End Site
								{
									OFFSET 0.000000 0.000000 0.000000
								}
							}
						}
					}
				}
			}
		}
	}
}
MOTION
Frames: 15
Frame Time: 0.033333
-0.347119 2.725074 0.976888 7.618800 0.172523 83.556832 0.452680 4.110241 7.353253 -3.700389 -1.734783 0.636502 5.794320 12.031978 -13.881930 0.000000 -0.000000 0.000000 1.777105 -2.805801 1.229570 0.567554 -2.418540 14.927675 -0.818972 -10.366509 -20.676049 0.000000 -0.000000 0.000000 0.180371 -1.060957 2.900119 1.366769 -2.361808 2.437695 -0.631327 -1.673635 3.399601 4.473846 2.053383 1.834357 -0.056273 -1.033389 17.071576 -27.689040 4.002948 6.709993 -59.337085 -5.362006 8.735911 8.075266 -29.056492 6.916384 -2.909532 -4.860425 -9.467438 25.963862 -0.709651 6.147067 59.427283 3.405697 13.305981 -11.761160 25.808595 -2.206572 6.882218 3.323133 -10.885925 
-0.346564 2.724751 0.976759 7.758921 0.203197 83.531737 0.466265 4.029318 7.386773 -3.730416 -1.797503 0.623936 5.658137 12.043922 -13.904387 0.000000 -0.000000 0.000000 1.781521 -2.832099 1.307027 0.570891 -2.440538 14.884892 -0.786975 -10.477665 -20.699078 0.000000 -0.000000 0.000000 0.286509 -1.126527 2.832157 1.247815 -2.268760 2.357296 -0.626385 -1.638632 3.613681 4.503476 2.094718 1.614959 -0.137131 -1.016514 17.319659 -27.570946 3.967878 6.696336 -59.480360 -5.401347 8.796788 8.192745 -29.073839 6.940946 -2.833976 -4.872590 -9.651046 25.900256 -0.660428 6.127019 59.557345 3.436062 13.367029 -11.865851 25.864179 -2.264176 6.835932 3.324933 -11.000839 
-0.346054 2.724436 0.976732 7.877025 0.206754 83.499396 0.465898 4.024894 7.453929 -3.762636 -1.859590 0.570728 5.642077 11.988522 -13.903229 0.000000 -0.000000 0.000000 1.752051 -2.857135 1.404678 0.579670 -2.484624 14.774341 -0.789007 -10.539689 -20.703185 0.000000 -0.000000 0.000000 0.317257 -1.108880 2.780313 1.235257 -2.255806 2.420650 -0.633487 -1.616043 3.586233 4.465859 2.083627 1.652657 -0.157053 -0.989385 17.304213 -27.576231 3.953108 6.732861 -59.502514 -5.364168 8.798462 8.247628 -29.131825 6.900247 -2.859447 -4.871245 -9.714611 25.871458 -0.657164 6.139552 59.564282 3.470500 13.279903 -11.933766 26.019689 -2.510864 6.923673 3.155964 -11.194383 
-0.345522 2.724214 0.976715 7.996359 0.217048 83.469751 0.479675 4.039411 7.529264 -3.801648 -1.938649 0.493837 5.619134 11.918551 -13.898490 0.000000 -0.000000 0.000000 1.711527 -2.916788 1.488302 0.588968 -2.544331 14.716543 -0.777141 -10.537249 -20.695788 0.000000 -0.000000 0.000000 0.341288 -1.097153 2.760160 1.227416 -2.244474 2.434318 -0.626198 -1.621604 3.568059 4.437338 2.091418 1.707536 -0.185946 -0.952329 17.295101 -27.572756 3.967463 6.749669 -59.556433 -5.303045 8.798787 8.263668 -29.138603 6.939610 -2.901057 -4.910328 -9.780305 25.842781 -0.658034 6.155672 59.516788 3.501287 13.250560 -11.940040 26.127926 -2.543399 6.945648 3.124426 -11.215979 
-0.345260 2.724182 0.976700 8.042997 0.215949 83.461081 0.479836 4.054438 7.575994 -3.820312 -1.968628 0.427979 5.617840 11.888040 -13.888854 0.000000 -0.000000 0.000000 1.688098 -2.931642 1.507363 0.591031 -2.571226 14.712927 -0.773403 -10.544375 -20.699669 0.000000 -0.000000 0.000000 0.353369 -1.092431 2.748907 1.215805 -2.230023 2.431734 -0.636694 -1.624317 3.557782 4.448365 2.101398 1.729395 -0.192662 -0.938758 17.320300 -27.573993 3.977571 6.761597 -59.557834 -5.272245 8.800377 8.245086 -29.115756 6.971596 -2.929406 -4.932382 -9.794731 25.833457 -0.653166 6.165218 59.498203 3.514469 13.253562 -11.935109 26.157352 -2.543823 6.940137 3.131324 -11.209689 
-0.344923 2.724084 0.976644 8.085927 0.217894 83.448398 0.483280 4.074698 7.657284 -3.831788 -2.003231 0.303790 5.600135 11.841916 -13.853205 0.000000 -0.000000 0.000000 1.663762 -2.962706 1.548368 0.593181 -2.592692 14.673208 -0.774282 -10.549362 -20.697567 0.000000 -0.000000 0.000000 0.378289 -1.091625 2.702304 1.196506 -2.219824 2.459532 -0.659406 -1.627102 3.547387 4.472640 2.113691 1.730497 -0.202453 -0.921936 17.362685 -27.571745 3.981168 6.771012 -59.579603 -5.240147 8.798068 8.246000 -29.014285 6.983413 -2.944595 -4.928996 -9.763841 25.824332 -0.641287 6.176381 59.485746 3.545248 13.246300 -11.930261 26.153561 -2.573092 6.941529 3.129512 -11.207796 
-0.344676 2.723979 0.976618 8.127648 0.224195 83.418589 0.495952 4.120244 7.760523 -3.833678 -2.040866 0.172800 5.561057 11.786026 -13.827254 0.000000 -0.000000 0.000000 1.645314 -3.011306 1.628826 0.595252 -2.599834 14.594428 -0.774165 -10.540398 -20.688518 0.000000 -0.000000 0.000000 0.402571 -1.101002 2.667044 1.176608 -2.221907 2.499419 -0.673907 -1.626649 3.546560 4.465520 2.101667 1.728618 -0.217243 -0.936205 17.362290 -27.592698 3.968645 6.748917 -59.596401 -5.212677 8.768686 8.257079 -28.827607 6.955716 -2.913922 -4.864378 -9.680727 25.822391 -0.631724 6.157054 59.477823 3.563904 13.220196 -11.925916 26.151014 -2.577608 6.934840 3.125333 -11.184068 
-0.344480 2.723905 0.976631 8.158678 0.226385 83.404122 0.505041 4.157742 7.840864 -3.833051 -2.053450 0.052999 5.506563 11.743232 -13.808203 0.000000 -0.000000 0.000000 1.625052 -3.053979 1.687155 0.601817 -2.600829 14.519132 -0.776325 -10.524270 -20.671436 0.000000 -0.000000 0.000000 0.424796 -1.106238 2.623130 1.158922 -2.220422 2.525264 -0.686994 -1.632683 3.546636 4.450508 2.105395 1.731574 -0.241945 -0.941439 17.366364 -27.608373 3.975145 6.743088 -59.623711 -5.197518 8.755785 8.273662 -28.714163 6.937838 -2.914859 -4.860071 -9.645819 25.825809 -0.641229 6.139156 59.470958 3.576665 13.217342 -11.912837 26.138930 -2.565176 6.922127 3.127654 -11.160536 
-0.344341 2.723971 0.976666 8.185336 0.235823 83.396514 0.518937 4.169475 7.848836 -3.841332 -2.066988 0.039790 5.467789 11.742694 -13.837246 0.000000 -0.000000 0.000000 1.617375 -3.076909 1.715220 0.612789 -2.612418 14.470687 -0.782412 -10.513590 -20.650976 0.000000 -0.000000 0.000000 0.444202 -1.102498 2.580297 1.153359 -2.221138 2.560679 -0.688049 -1.631223 3.553924 4.426669 2.116884 1.713540 -0.272695 -0.936572 17.360943 -27.614949 3.964556 6.746383 -59.675412 -5.201353 8.748581 8.298414 -28.666204 6.911188 -2.920406 -4.846844 -9.646719 25.827279 -0.635034 6.155528 59.462565 3.593769 13.209819 -11.918368 26.140941 -2.560866 6.932210 3.134560 -11.143109 
-0.344246 2.724295 0.976716 8.237733 0.239418 83.384285 0.500981 4.119784 7.758212 -3.836188 -2.044244 0.175408 5.459983 11.752229 -13.884335 0.000000 -0.000000 0.000000 1.619768 -3.071467 1.721499 0.604252 -2.648949 14.442495 -0.783897 -10.534399 -20.622932 0.000000 -0.000000 0.000000 0.438199 -1.088422 2.610342 1.158058 -2.224118 2.559560 -0.671832 -1.626438 3.567567 4.407716 2.133188 1.664821 -0.279165 -0.908651 17.316330 -27.634693 3.948307 6.744670 -59.717146 -5.209346 8.769863 8.322467 -28.760665 6.911449 -2.920658 -4.854774 -9.659194 25.835497 -0.619506 6.176322 59.455504 3.594708 13.208984 -11.938410 26.135960 -2.575553 6.933882 3.142190 -11.142878 
-0.344213 2.724584 0.976724 8.276425 0.245829 83.370127 0.493355 4.088743 7.719282 -3.828777 -2.026422 0.231532 5.472532 11.738683 -13.885988 0.000000 -0.000000 0.000000 1.618149 -3.091573 1.740838 0.598173 -2.669976 14.415245 -0.788192 -10.514480 -20.598630 0.000000 -0.000000 0.000000 0.443378 -1.053543 2.650608 1.158909 -2.213999 2.551825 -0.663393 -1.615818 3.569109 4.416569 2.130119 1.657892 -0.263608 -0.911927 17.291806 -27.633053 3.924814 6.739394 -59.745545 -5.234149 8.793441 8.316601 -28.840752 6.958946 -2.933852 -4.861429 -9.641533 25.846028 -0.617813 6.195344 59.459771 3.569736 13.201266 -11.964258 26.120843 -2.558604 6.964103 3.146284 -11.105331 
-0.344203 2.724792 0.976705 8.297154 0.249368 83.356479 0.510047 4.085119 7.733192 -3.853555 -2.033731 0.204376 5.475032 11.714745 -13.877651 0.000000 -0.000000 0.000000 1.600422 -3.112178 1.747981 0.618405 -2.682995 14.413435 -0.786094 -10.487461 -20.595977 0.000000 -0.000000 0.000000 0.444863 -1.024521 2.641554 1.161056 -2.191162 2.586716 -0.657372 -1.594747 3.571757 4.430321 2.129331 1.670483 -0.245488 -0.936513 17.315328 -27.634740 3.901863 6.730537 -59.768572 -5.274378 8.817192 8.323936 -28.890797 6.967307 -2.923232 -4.868110 -9.633458 25.857491 -0.600233 6.231798 59.467772 3.551474 13.188542 -11.965651 26.066379 -2.563203 6.973124 3.132468 -11.098403 
-0.344213 2.724977 0.976688 8.312325 0.255752 83.361607 0.536461 4.060517 7.724171 -3.894861 -2.061153 0.187021 5.484874 11.707420 -13.880855 0.000000 -0.000000 0.000000 1.598276 -3.103720 1.737858 0.638704 -2.693866 14.400237 -0.798522 -10.496451 -20.586970 0.000000 -0.000000 0.000000 0.439283 -1.012950 2.582668 1.171236 -2.172112 2.648288 -0.647605 -1.572582 3.581653 4.437406 2.127236 1.697274 -0.226260 -0.946665 17.345826 -27.652691 3.885122 6.733369 -59.792414 -5.320064 8.831754 8.367165 -28.914453 6.936745 -2.911481 -4.851143 -9.636663 25.879562 -0.579781 6.273828 59.461092 3.557610 13.184581 -11.961071 25.993769 -2.557433 6.988213 3.111113 -11.083864 
-0.344235 2.725198 0.976706 8.368374 0.259823 83.363114 0.549664 4.020211 7.685469 -3.919769 -2.112707 0.224589 5.495613 11.694970 -13.873951 0.000000 -0.000000 0.000000 1.601608 -3.117295 1.747555 0.644141 -2.708332 14.361730 -0.812719 -10.518112 -20.561879 0.000000 -0.000000 0.000000 0.430102 -1.005714 2.552613 1.180929 -2.171699 2.684232 -0.639018 -1.569092 3.594276 4.439476 2.122351 1.709545 -0.215621 -0.959486 17.365562 -27.649889 3.870741 6.733214 -59.820554 -5.366911 8.840683 8.385561 -28.893427 6.930124 -2.908266 -4.832141 -9.648502 25.895017 -0.593459 6.287586 59.475484 3.554644 13.182799 -11.961216 25.935359 -2.555032 6.990433 3.092803 -11.086960 
-0.344340 2.725501 0.976728 8.432938 0.261750 83.374174 0.539151 3.970649 7.637772 -3.908090 -2.136722 0.237427 5.517548 11.693883 -13.835290 0.000000 -0.000000 0.000000 1.620585 -3.121194 1.728269 0.631459 -2.730686 14.342782 -0.832496 -10.561991 -20.542750 0.000000 -0.000000 0.000000 0.421191 -1.005660 2.568268 1.184228 -2.179759 2.678427 -0.633915 -1.575681 3.595178 4.439611 2.122128 1.726288 -0.211084 -0.955140 17.357142 -27.637277 3.863817 6.744213 -59.826550 -5.388015 8.845160 8.395913 -28.912379 6.922675 -2.926891 -4.826983 -9.669022 25.901042 -0.601672 6.295754 59.507182 3.531189 13.200198 -11.974852 25.927330 -2.540169 7.005196 3.082596 -11.087058 
